<?xml version="1.0" standalone="no"?>
<!DOCTYPE svg PUBLIC "-//W3C//DTD SVG 20010904//EN"
 "http://www.w3.org/TR/2001/REC-SVG-20010904/DTD/svg10.dtd">
<svg version="1.0" xmlns="http://www.w3.org/2000/svg"
 width="60.000000pt" height="60.000000pt" viewBox="0 0 60.000000 60.000000"
 preserveAspectRatio="xMidYMid meet">
<metadata>
Created by potrace 1.16, written by Peter Selinger 2001-2019
</metadata>
<g transform="translate(0.000000,60.000000) scale(0.000360,-0.001217)"
fill="#000000" stroke="none">
<path d="M95945 46344 c-347 -30 -575 -76 -887 -183 -480 -164 -882 -410
-1242 -761 -499 -486 -842 -1103 -970 -1746 -65 -325 -60 -80 -66 -3139 -3
-1529 -6 -2781 -8 -2782 -5 -6 -218 -2 -239 3 l-23 6 0 262 c0 293 -6 333 -63
408 -20 27 -55 54 -92 73 l-59 30 -415 0 c-385 0 -420 -1 -465 -19 -66 -25
-128 -84 -157 -149 -23 -50 -24 -65 -29 -332 l-5 -280 -160 -6 c-260 -10 -365
-49 -500 -184 -125 -125 -175 -247 -175 -425 0 -113 17 -188 67 -290 66 -137
211 -255 373 -305 37 -12 110 -19 225 -24 l170 -6 3 -1999 c2 -1808 1 -1998
-14 -1992 -51 19 -364 90 -481 108 -117 19 -182 22 -428 23 -303 0 -445 -12
-770 -66 -470 -78 -986 -272 -1496 -564 -460 -263 -1237 -841 -1839 -1368
-303 -265 -437 -392 -805 -761 -842 -844 -1465 -1569 -2274 -2646 -117 -157
-216 -287 -218 -290 -20 -22 475 1144 730 1720 735 1659 1546 3296 2335 4715
1178 2118 2280 3713 3168 4585 374 367 649 561 949 670 50 18 113 41 140 51
28 10 68 18 91 19 90 0 220 103 245 191 47 175 -83 753 -245 1083 -108 221
-215 365 -431 582 -303 304 -619 503 -1015 638 -223 77 -398 111 -720 140
-459 43 -822 45 -1035 6 -60 -11 -133 -20 -161 -20 -32 0 -72 -9 -105 -24 -30
-13 -81 -29 -114 -36 -90 -19 -285 -101 -415 -176 -551 -317 -1117 -935 -1820
-1987 -839 -1258 -1709 -2974 -2581 -5089 -567 -1377 -1033 -2590 -1594 -4153
-351 -978 -776 -2224 -918 -2690 -35 -115 -94 -307 -131 -425 -340 -1085 -559
-2052 -636 -2804 -71 -693 -42 -1266 85 -1711 77 -269 229 -629 343 -813 179
-288 429 -535 833 -823 361 -258 808 -461 1219 -554 235 -54 636 -111 758
-109 136 3 258 101 351 283 87 170 142 374 201 734 105 652 340 1592 572 2297
230 698 424 1171 744 1810 557 1114 1132 2027 1770 2810 572 704 1141 1292
1614 1671 346 276 785 599 927 682 104 60 229 91 373 91 88 1 111 -2 140 -19
52 -31 74 -76 72 -150 -1 -106 -16 -144 -149 -385 -422 -764 -830 -1644 -1113
-2405 -267 -718 -612 -1911 -784 -2715 -158 -740 -270 -1496 -306 -2080 -18
-297 -23 -820 -11 -1088 15 -319 24 -392 55 -469 14 -34 42 -119 62 -190 45
-163 71 -211 165 -303 83 -83 194 -153 419 -265 411 -205 748 -310 1210 -374
666 -93 1326 -69 1885 68 230 57 892 264 973 305 97 49 152 124 152 207 0 84
-127 357 -240 514 -375 523 -571 1110 -641 1920 -16 180 -16 749 0 975 44 634
139 1225 293 1820 140 543 423 1388 693 2070 164 416 464 1103 494 1133 5 5
25 -22 46 -59 272 -497 717 -1012 1190 -1381 672 -523 1466 -852 2310 -958
198 -24 431 -35 783 -35 l332 0 0 -683 c0 -410 4 -716 10 -767 41 -336 224
-602 535 -775 l63 -35 7 -253 c12 -442 2 -5184 -12 -5198 -7 -7 -90 -16 -215
-25 -1085 -70 -2163 -270 -2890 -535 -155 -56 -312 -109 -649 -217 -296 -96
-565 -204 -814 -327 -636 -316 -984 -658 -1097 -1079 -31 -117 -31 -326 1
-446 28 -106 103 -265 173 -367 70 -103 257 -288 390 -388 649 -484 1770 -855
3238 -1074 402 -59 436 -64 755 -96 1107 -111 1972 -130 3145 -69 594 30 1384
118 1926 215 1050 186 1780 400 2381 699 338 167 548 307 742 495 181 176 281
324 345 516 56 168 61 387 11 554 -115 391 -478 739 -1081 1039 -286 142 -531
237 -984 381 -168 53 -377 124 -464 156 -425 159 -907 280 -1536 383 -544 90
-801 120 -1314 155 -173 12 -259 21 -270 30 -15 12 -16 262 -16 2725 0 1491 4
2716 8 2722 4 5 38 27 75 47 243 133 424 361 499 632 22 78 22 95 28 830 3
413 7 751 8 751 1 1 192 4 425 7 457 5 611 16 912 67 327 55 709 166 1014 295
136 57 395 185 509 251 l64 36 -16 -30 c-9 -17 -16 -38 -16 -46 0 -9 -36 -123
-80 -253 -165 -495 -235 -823 -290 -1354 -51 -501 -42 -1254 20 -1684 74 -518
286 -1073 575 -1505 224 -335 530 -650 898 -926 171 -128 279 -196 472 -295
299 -154 662 -279 1065 -368 134 -29 449 -83 565 -97 33 -4 69 -13 80 -20 78
-54 284 67 357 210 12 22 33 77 49 121 15 44 41 119 58 166 40 110 61 251 61
405 0 261 52 947 95 1270 109 808 282 1486 550 2159 220 552 403 903 711 1359
102 151 356 497 361 493 1 -1 -25 -70 -58 -152 -244 -608 -478 -1307 -539
-1613 -73 -368 -98 -732 -70 -1052 38 -438 196 -708 531 -907 755 -447 1508
-678 2152 -660 190 5 277 21 367 67 156 80 187 181 230 765 31 422 91 901 155
1251 120 646 424 1454 787 2084 196 342 507 800 541 800 19 0 19 -1 4 -18 -9
-9 -29 -56 -46 -102 -16 -47 -66 -182 -111 -300 -462 -1208 -760 -2323 -860
-3213 -19 -167 -40 -460 -60 -837 -18 -315 -24 -1015 -11 -1250 14 -269 46
-595 67 -680 48 -201 230 -443 412 -549 349 -203 817 -375 1203 -440 772 -132
1503 -112 2174 59 412 105 865 248 931 293 109 75 136 181 89 342 -37 126
-103 261 -183 374 -355 497 -549 1056 -629 1806 -25 235 -25 942 0 1255 52
644 146 1225 298 1835 125 499 172 635 486 1410 146 359 343 859 343 870 0 11
168 380 280 616 125 262 325 649 460 889 91 164 171 353 266 634 130 383 225
735 245 908 35 300 -52 606 -248 880 -77 109 -288 327 -388 401 -98 73 -252
150 -360 178 -112 30 -354 37 -482 15 -108 -19 -421 -108 -578 -164 -378 -137
-446 -174 -970 -541 -308 -215 -455 -326 -710 -536 -497 -409 -907 -791 -1779
-1655 -544 -540 -818 -838 -1149 -1250 -77 -96 -147 -182 -155 -190 -22 -23
116 245 216 421 222 387 534 851 924 1378 226 303 392 508 662 818 32 38 75
102 95 143 32 67 36 84 36 155 0 70 -4 89 -32 148 -89 187 -306 294 -643 317
-69 5 -192 16 -275 24 -83 9 -246 16 -365 16 -346 0 -550 -32 -873 -137 -235
-76 -363 -129 -582 -242 -401 -206 -537 -312 -842 -657 -513 -578 -791 -934
-1704 -2179 -463 -631 -685 -951 -904 -1300 -78 -125 -91 -141 -80 -105 20 71
130 341 220 545 57 126 135 309 175 405 346 837 840 1841 1203 2448 63 106
133 234 155 285 149 340 144 645 -15 909 -72 121 -249 351 -352 459 -50 53
-126 123 -168 155 -43 32 -121 90 -173 130 -52 39 -138 99 -190 134 -125 82
-440 239 -571 285 -193 67 -575 156 -729 170 -209 18 -421 -57 -556 -197 -68
-70 -202 -265 -334 -486 -69 -114 -130 -216 -137 -227 -11 -16 -13 387 -13
2172 l0 2190 173 5 c150 5 182 9 252 31 190 63 336 212 396 407 34 110 33 266
-4 368 -37 105 -82 174 -162 250 -130 123 -230 159 -468 169 -84 3 -160 10
-169 14 -15 8 -17 39 -20 286 -3 267 -4 280 -27 330 -28 64 -81 114 -147 139
-45 18 -81 19 -459 19 -379 0 -414 -1 -459 -19 -67 -26 -129 -85 -156 -149
-21 -49 -23 -67 -25 -325 -1 -150 -5 -276 -9 -280 -10 -9 -216 -9 -238 0 -17
7 -18 144 -18 2671 0 2674 -1 2789 -36 3032 -186 1308 -1136 2401 -2407 2769
-161 47 -323 81 -510 108 l-152 22 -2025 1 c-1114 1 -2043 0 -2065 -1z m25
-303 c7 -13 10 -355 10 -1037 0 -1008 0 -1018 21 -1060 59 -124 207 -172 334
-109 30 14 67 42 81 60 55 73 54 44 54 1140 l0 1013 23 6 c12 3 95 6 183 6
138 0 163 -2 168 -16 3 -9 6 -463 6 -1009 0 -670 4 -1010 11 -1044 23 -111
116 -181 238 -181 42 0 81 7 106 19 51 23 111 89 124 138 7 26 11 370 11 1059
l0 1022 23 6 c12 3 97 6 188 6 l166 0 7 -37 c3 -21 6 -483 6 -1027 0 -721 3
-999 12 -1027 6 -22 26 -57 45 -78 120 -140 357 -97 419 76 11 31 13 232 14
1059 l0 1021 46 7 c71 9 297 7 314 -4 13 -8 16 -138 20 -1037 l5 -1028 31 -55
c23 -41 45 -63 84 -87 48 -29 63 -33 125 -33 82 0 134 21 182 71 73 77 68 -2
71 1141 l3 1027 52 6 c29 4 110 5 180 3 100 -2 130 -6 137 -18 6 -9 10 -409
10 -1030 l0 -1015 24 -50 c42 -90 118 -137 224 -137 107 -1 204 70 232 170 6
24 10 385 10 1056 l0 1019 83 -7 c110 -9 270 -36 282 -47 6 -7 12 -364 15
-1012 l5 -1002 31 -55 c43 -77 103 -113 194 -118 86 -5 132 10 186 60 84 77
79 14 79 1046 l0 914 -30 24 -30 25 60 -22 c100 -36 294 -126 400 -186 150
-85 425 -271 425 -289 0 -7 -3 -5 -170 106 -175 117 -232 150 -253 150 -16 0
-17 -62 -17 -822 l0 -823 24 -50 c87 -189 363 -186 445 4 21 50 21 53 19 725
l-3 674 40 -31 c75 -58 332 -322 415 -427 133 -168 120 -31 120 -1186 0 -951
-1 -1002 -18 -1006 -9 -3 -128 17 -262 43 -931 183 -1963 309 -2995 366 -448
25 -1565 25 -2050 0 -624 -32 -866 -52 -1435 -118 -607 -71 -1079 -142 -1607
-245 -155 -29 -296 -54 -313 -54 -49 0 -278 83 -462 167 l-78 36 0 141 c0 470
142 998 381 1419 237 416 559 778 909 1021 l55 38 -35 -33 c-20 -19 -61 -57
-93 -86 l-57 -52 0 -676 c0 -741 -3 -707 61 -780 46 -52 99 -75 180 -75 78 0
155 34 195 86 55 71 54 58 54 966 l0 838 133 64 c130 63 376 160 384 152 2 -2
-28 -21 -66 -42 l-71 -38 0 -898 c0 -600 4 -914 11 -947 24 -112 114 -181 236
-181 44 0 82 7 109 19 49 23 107 88 122 140 9 28 12 305 13 1012 1 536 4 985
8 999 8 31 56 44 228 64 65 7 121 14 125 15 4 0 12 -8 18 -18z m2755 -3346
c472 -16 473 -16 950 -55 719 -59 1342 -143 2112 -285 448 -83 503 -97 503
-131 0 -7 4 -15 9 -18 5 -3 101 -27 212 -52 222 -51 265 -67 303 -117 63 -82
56 -178 -18 -251 -70 -70 -103 -74 -298 -31 -89 20 -171 35 -182 33 -21 -3
-21 -8 -24 -250 -2 -204 -5 -248 -16 -248 -8 0 -139 23 -293 51 -937 170
-1551 253 -2318 314 -733 58 -1060 69 -1884 62 -821 -7 -1063 -18 -1881 -93
-379 -34 -601 -62 -1214 -155 -424 -64 -531 -77 -537 -67 -5 7 -9 223 -9 480
l0 467 53 15 c126 37 768 135 1267 195 689 83 989 106 1900 144 214 9 1016 5
1365 -8z m-14 -1405 c897 -35 1802 -124 2624 -260 217 -36 884 -162 928 -176
10 -3 23 -18 28 -33 9 -25 19 -29 222 -75 116 -26 224 -54 238 -61 58 -30 109
-115 109 -180 -1 -32 -37 -103 -67 -131 -35 -33 -86 -54 -130 -54 -18 0 -106
16 -194 36 -88 20 -164 33 -167 29 -4 -4 -8 -119 -10 -256 -2 -171 -6 -249
-14 -249 -6 0 -153 27 -328 60 -900 169 -1711 274 -2595 335 -731 50 -1740 56
-2540 15 -218 -12 -828 -61 -1115 -90 -315 -33 -768 -95 -1229 -171 -167 -27
-309 -49 -317 -49 -12 0 -14 76 -14 480 l0 479 22 12 c43 23 841 149 1258 198
608 72 863 95 1445 126 709 39 1132 42 1846 15z m104 -1410 c505 -21 536 -23
1057 -70 678 -62 1399 -165 2098 -301 263 -51 320 -68 320 -94 0 -22 22 -29
245 -80 137 -31 211 -53 236 -70 42 -27 89 -113 89 -159 -1 -76 -73 -165 -151
-186 -43 -12 -46 -11 -316 46 -45 10 -86 15 -90 10 -4 -4 -9 -115 -11 -247 -2
-185 -6 -241 -16 -245 -7 -3 -204 29 -438 70 -520 93 -728 126 -1013 165 -667
91 -1429 156 -2115 182 -355 13 -1479 7 -1775 -10 -931 -54 -1287 -91 -2227
-231 -295 -44 -544 -80 -552 -80 -14 0 -16 51 -16 475 l0 475 23 14 c12 9 54
20 92 25 39 6 207 33 375 60 700 114 1475 202 2055 231 874 45 1403 50 2130
20z m-445 -1390 c853 -26 1273 -56 2115 -151 450 -51 1170 -168 1644 -269 123
-26 137 -31 161 -59 24 -30 37 -35 224 -76 113 -26 216 -54 239 -67 130 -72
138 -244 16 -325 -60 -40 -111 -40 -298 1 -91 20 -167 33 -170 30 -3 -3 -7
-115 -9 -249 -3 -229 -4 -244 -22 -250 -10 -3 -133 17 -272 44 -544 108 -1388
232 -1903 281 -1313 123 -2424 140 -3605 55 -766 -55 -1239 -111 -2013 -236
-175 -29 -321 -49 -325 -45 -4 4 -8 221 -10 481 -3 464 -2 474 17 485 34 18
737 132 1076 174 585 74 1067 120 1465 140 813 43 1186 51 1670 36z m-6155
-292 c3 -18 4 -1456 3 -3196 l-3 -3164 -48 65 c-102 139 -333 320 -560 437
l-87 45 0 2917 0 2917 23 4 c12 2 167 5 344 6 l322 1 6 -32z m12138 26 l37 -7
0 -3304 0 -3305 -151 -266 c-492 -864 -875 -1677 -1339 -2837 -101 -252 -327
-840 -361 -939 -12 -34 -29 -49 -124 -111 -326 -213 -666 -376 -1056 -506
-302 -101 -529 -152 -869 -195 -152 -19 -995 -32 -1020 -15 -13 9 -16 61 -21
328 -5 279 -8 327 -26 393 -28 102 -65 191 -114 273 -23 38 -38 72 -34 75 4 4
187 10 408 13 504 8 729 33 1059 118 1478 381 2608 1589 2887 3086 60 318 55
17 58 3750 2 1876 5 3420 8 3433 l5 22 308 0 c169 0 324 -3 345 -6z m-13123
-1096 c0 -167 -4 -309 -9 -317 -7 -11 -37 -12 -147 -9 -162 6 -211 20 -280 81
-133 117 -140 322 -16 450 74 77 135 95 315 96 l137 1 0 -302z m1544 265 c3
-21 6 -159 6 -306 0 -246 -1 -268 -17 -275 -25 -10 -229 -9 -240 1 -12 13 -16
558 -4 590 l11 27 118 0 119 0 7 -37z m10626 -24 c3 -30 3 -171 2 -312 l-4
-257 -111 0 c-62 0 -119 5 -127 10 -13 8 -15 52 -15 297 0 158 3 296 7 306 7
16 20 17 125 15 l118 -3 5 -56z m1645 31 c64 -31 124 -91 155 -155 36 -74 35
-190 -3 -262 -36 -70 -88 -120 -156 -151 -50 -24 -71 -27 -196 -30 -118 -3
-143 -2 -154 11 -9 12 -12 81 -9 304 2 158 7 294 12 302 7 10 39 12 155 9 129
-4 152 -7 196 -28z m-6470 -320 c1167 -38 2279 -164 3408 -386 276 -55 289
-58 302 -84 14 -26 52 -50 82 -50 45 0 344 -75 384 -97 84 -45 127 -149 94
-229 -19 -46 -58 -90 -100 -111 -44 -23 -122 -19 -280 16 -77 17 -148 31 -157
31 -17 0 -18 -18 -18 -249 l0 -250 -22 -3 c-13 -2 -97 11 -188 29 -638 127
-1392 239 -2010 298 -806 76 -1111 93 -1880 102 -536 6 -668 3 -1380 -28 -677
-29 -1652 -137 -2388 -265 -112 -19 -220 -34 -240 -32 l-37 3 -3 478 c-2 377
0 478 10 482 7 2 114 22 238 44 1363 240 2831 345 4185 301z m-5803 -582 c2
-2 5 -1108 8 -2458 7 -2713 1 -2487 70 -2830 100 -499 330 -983 667 -1405 106
-133 345 -379 468 -483 499 -420 1072 -670 1760 -769 109 -15 294 -17 2100
-21 2054 -3 2166 -2 2426 38 1070 163 2012 848 2504 1820 202 401 319 821 354
1279 7 89 11 929 11 2467 0 1283 3 2339 6 2348 5 13 26 16 130 16 l124 0 -3
-2562 c-3 -2814 2 -2584 -62 -2915 -167 -867 -701 -1694 -1445 -2234 -429
-312 -982 -543 -1513 -633 -270 -46 -360 -51 -927 -51 l-535 0 -78 33 c-43 18
-113 43 -155 55 -76 22 -88 22 -722 22 -720 0 -688 3 -872 -72 l-93 -38 -430
-3 c-673 -5 -963 22 -1360 128 -1168 311 -2124 1211 -2510 2365 -83 247 -152
576 -175 835 -6 75 -10 978 -10 2593 l0 2477 130 0 c72 0 131 -1 132 -2z
m5908 -828 c1168 -45 2305 -179 3414 -404 164 -33 170 -35 200 -69 30 -34 37
-37 226 -77 211 -45 256 -62 294 -113 57 -75 56 -173 -4 -241 -66 -75 -124
-81 -330 -35 -76 17 -149 29 -162 27 l-23 -3 -3 -247 -2 -248 -29 0 c-16 0
-159 25 -318 55 -674 130 -1407 235 -1976 285 -926 80 -1809 113 -2443 92
-802 -28 -1112 -47 -1669 -102 -566 -57 -805 -89 -1310 -172 -170 -29 -330
-52 -355 -52 l-45 -1 -3 477 c-2 533 -8 489 68 501 19 3 157 26 305 51 882
148 1793 241 2690 275 305 12 1177 12 1475 1z m560 -1433 c460 -31 440 -30
855 -73 648 -68 864 -99 1615 -235 522 -95 570 -105 570 -124 0 -31 46 -48
238 -90 109 -24 213 -50 229 -58 44 -23 91 -81 104 -129 13 -50 1 -113 -31
-159 -25 -34 -113 -79 -154 -79 -17 0 -112 18 -211 40 -99 22 -187 40 -195 40
-11 0 -29 -53 -68 -203 -30 -111 -62 -220 -71 -243 l-18 -41 -209 39 c-1044
193 -1903 291 -3059 350 -329 17 -1420 17 -1755 0 -1034 -52 -1766 -128 -2654
-278 -147 -25 -271 -42 -275 -39 -3 4 -7 220 -9 481 l-3 475 33 13 c33 14 580
106 858 145 155 22 633 80 865 105 164 18 727 60 1000 76 105 6 215 12 245 14
30 2 429 2 885 1 777 -2 855 -4 1215 -28z m-640 -1377 c772 -23 1732 -111
2470 -225 318 -49 801 -134 828 -145 12 -5 27 -21 32 -34 5 -13 17 -27 27 -30
10 -3 182 -39 383 -81 201 -42 385 -86 409 -97 47 -23 96 -88 107 -143 16 -87
-58 -192 -152 -214 -46 -11 -76 -6 -484 79 -239 50 -460 93 -490 96 l-55 5
-80 -102 c-103 -132 -308 -339 -454 -458 -102 -82 -354 -256 -440 -303 -17 -9
-31 -23 -31 -31 0 -7 20 -28 44 -45 28 -20 54 -51 70 -84 l26 -52 0 -912 0
-913 -27 -19 c-49 -34 -413 -205 -421 -198 -4 4 -8 473 -10 1042 -2 569 -6
1034 -10 1034 -4 0 -96 -30 -204 -67 l-198 -66 0 -977 0 -977 -37 -7 c-21 -3
-122 -6 -226 -6 l-187 0 -10 25 c-6 15 -9 389 -10 936 0 502 -2 914 -5 917 -6
6 -81 8 -252 4 l-132 -2 -10 -37 c-7 -25 -11 -344 -11 -934 l0 -896 -37 -7
c-72 -11 -398 -7 -411 6 -9 9 -12 229 -12 930 0 865 -1 919 -17 926 -10 4 -94
7 -188 7 -93 0 -178 -3 -187 -7 -17 -7 -18 -61 -18 -932 0 -833 -2 -924 -16
-930 -9 -3 -110 -6 -225 -6 l-209 0 -10 26 c-6 16 -10 368 -10 933 l0 908 -37
7 c-60 9 -336 7 -353 -4 -13 -8 -15 -125 -18 -933 l-2 -925 -31 -6 c-18 -3
-118 -6 -224 -6 -167 0 -194 2 -199 16 -3 9 -6 427 -6 930 0 862 -1 915 -17
922 -10 4 -94 7 -188 7 -93 0 -178 -3 -187 -7 -17 -7 -18 -61 -18 -932 0 -833
-2 -924 -16 -930 -9 -3 -110 -6 -225 -6 l-209 0 -10 26 c-6 16 -10 368 -10
933 l0 908 -37 7 c-60 9 -336 7 -353 -4 -13 -8 -16 -126 -20 -929 l-5 -920
-75 30 c-41 17 -142 65 -225 107 l-150 78 -3 840 -2 840 -183 43 c-101 23
-194 45 -205 48 l-22 5 0 -787 c0 -745 -1 -787 -17 -783 -10 3 -112 67 -226
143 -143 95 -212 146 -218 164 -6 15 -9 275 -7 665 l3 641 27 58 27 57 -37 23
c-20 13 -52 32 -69 42 l-33 19 0 662 0 662 33 11 c17 6 151 31 297 55 1376
233 2741 328 4130 286z m2943 -1703 c52 -22 98 -68 123 -122 l24 -50 0 -661 0
-662 -221 -191 c-121 -105 -225 -189 -230 -186 -5 4 -9 345 -9 856 0 937 -3
888 63 958 18 18 50 42 72 52 47 22 132 25 178 6z m-9009 -957 c47 -110 172
-353 237 -462 339 -563 772 -1000 1331 -1346 65 -40 109 -74 112 -86 3 -12 6
-292 6 -623 0 -535 -2 -603 -15 -603 -23 0 -322 146 -460 225 -348 197 -626
413 -945 734 -322 323 -548 626 -759 1017 l-81 150 85 183 c171 367 283 675
375 1031 l12 44 37 -99 c21 -55 50 -129 65 -165z m5945 -2336 l31 -7 -2 -971
-3 -971 -544 -3 c-429 -2 -546 0 -553 10 -4 7 -8 446 -8 975 0 760 3 962 13
966 18 8 1029 8 1066 1z m473 -167 c89 -90 148 -196 184 -332 18 -67 19 -127
19 -1205 0 -1274 5 -1192 -75 -1355 -94 -193 -265 -331 -476 -385 -72 -19
-112 -20 -643 -20 -644 0 -647 1 -801 76 -80 40 -110 62 -186 138 -74 74 -98
107 -132 176 -82 168 -77 71 -77 1375 l0 1160 23 75 c41 130 87 206 188 308
51 50 99 92 108 92 14 0 16 -99 18 -992 l3 -993 24 -48 c30 -61 99 -121 164
-144 48 -17 100 -18 673 -18 l621 0 69 35 c73 37 120 92 146 168 9 28 12 281
14 1012 2 536 3 979 4 983 0 12 76 -49 132 -106z m-1372 -3607 c13 -8 15 -421
15 -3614 0 -2646 -3 -3608 -11 -3616 -12 -12 -192 -16 -203 -4 -9 9 -13 4360
-5 5892 l6 1352 92 0 c50 0 98 -5 106 -10z m954 -21 c11 -57 7 -7178 -4 -7200
-10 -18 -24 -19 -314 -19 l-304 0 -6 23 c-3 12 -6 1639 -6 3615 l0 3593 23 9
c12 5 153 9 313 9 l292 1 6 -31z m681 -5675 c1479 -112 2758 -442 3420 -881
149 -99 336 -278 394 -376 66 -112 85 -180 85 -302 0 -100 -3 -117 -30 -186
-168 -418 -835 -795 -1874 -1059 -448 -114 -1094 -224 -1610 -275 -722 -71
-1301 -93 -2000 -76 -520 12 -598 16 -1065 56 -1403 121 -2623 445 -3250 863
-246 164 -397 332 -460 513 -85 241 25 506 303 731 405 326 1140 608 2052 787
378 74 845 142 1210 176 151 14 322 30 379 35 163 16 288 13 295 -5 10 -28 19
-338 12 -435 l-8 -96 -156 -23 c-426 -63 -745 -145 -1012 -258 -314 -134 -490
-312 -478 -484 21 -295 520 -550 1352 -689 816 -136 1846 -118 2612 46 479
102 819 247 994 422 79 80 110 147 110 237 0 116 -60 212 -198 313 -262 193
-698 327 -1392 429 l-55 8 0 270 0 269 25 7 c27 7 37 7 345 -17z m-6577 -1081
c-101 -165 -140 -302 -140 -483 2 -352 212 -659 647 -943 682 -444 1949 -774
3445 -897 548 -44 774 -53 1365 -53 702 0 1158 24 1750 89 1462 161 2567 492
3208 959 108 79 280 252 340 343 118 177 161 314 161 512 0 185 -33 299 -131
458 -25 40 -43 75 -40 78 3 3 58 -22 122 -56 484 -253 781 -546 859 -847 20
-78 20 -218 0 -296 -91 -351 -480 -689 -1116 -971 -367 -162 -787 -301 -1265
-417 -831 -202 -1784 -333 -2878 -396 -650 -37 -1965 -18 -2585 38 -868 78
-1526 177 -2185 329 -884 204 -1612 495 -2042 816 -172 129 -335 310 -406 449
-75 151 -94 328 -49 475 74 239 265 455 592 669 102 66 363 210 382 211 4 0
-11 -30 -34 -67z"/>
<path d="M154495 44180 c-218 -11 -327 -25 -550 -71 -332 -68 -377 -81 -466
-135 -45 -27 -89 -60 -98 -73 -9 -13 -70 -82 -136 -154 -500 -542 -798 -891
-1175 -1377 -533 -687 -997 -1371 -1515 -2235 -1271 -2118 -2457 -4468 -3402
-6740 -697 -1675 -1483 -3881 -2052 -5760 -469 -1550 -838 -2898 -1016 -3714
-39 -180 -75 -381 -75 -421 0 -16 -23 -133 -50 -262 -244 -1130 -317 -1572
-377 -2283 -22 -267 -25 -1140 -5 -1390 41 -498 123 -976 218 -1270 93 -285
242 -566 411 -775 167 -207 515 -492 842 -689 339 -206 734 -361 1096 -431 33
-6 175 -37 315 -67 279 -61 318 -64 488 -37 117 18 187 52 251 119 107 113
173 328 151 488 -8 55 -25 96 -84 210 -202 384 -303 747 -355 1268 -31 305
-41 527 -41 878 0 591 47 1136 150 1749 86 505 259 1221 391 1616 l40 118 -3
192 -3 191 58 123 c31 67 62 142 68 165 5 23 32 141 60 262 408 1789 1081
3764 1974 5795 900 2046 1878 4018 2890 5826 1099 1964 2089 3606 2991 4964
490 738 802 1163 977 1330 245 233 489 483 527 539 75 111 94 171 94 286 -1
245 -133 617 -298 836 -82 108 -212 232 -318 302 -78 52 -360 206 -786 430
l-182 97 -166 30 c-371 69 -557 84 -839 70z"/>
<path d="M18060 43593 c-1182 -32 -2489 -315 -3710 -803 -1102 -440 -2398
-1211 -3451 -2051 -1441 -1150 -2648 -2458 -3604 -3904 -427 -646 -915 -1519
-1193 -2135 -358 -793 -663 -1732 -936 -2885 -218 -922 -346 -1783 -412 -2770
-21 -324 -30 -1118 -15 -1400 42 -810 169 -1572 386 -2315 205 -703 517 -1293
974 -1840 166 -199 531 -555 720 -702 l34 -26 -26 -149 c-65 -360 -87 -588
-87 -889 0 -247 9 -362 44 -569 14 -77 32 -232 41 -345 70 -875 263 -1659 550
-2229 160 -320 435 -735 686 -1036 105 -126 378 -398 491 -490 l87 -70 -42 -7
c-23 -3 -85 -7 -138 -7 -52 -1 -156 -6 -230 -11 -993 -77 -1894 -380 -2633
-886 -507 -348 -848 -806 -1063 -1429 -49 -143 -145 -508 -168 -643 -23 -129
-29 -303 -16 -412 27 -216 140 -579 219 -698 77 -118 210 -198 457 -278 142
-46 156 -49 260 -49 103 0 114 2 178 32 126 60 239 204 306 390 23 61 33 112
40 200 5 65 17 147 25 183 8 36 18 95 21 131 6 57 11 68 33 82 44 25 67 58 91
127 13 36 51 124 86 195 144 298 326 516 588 706 369 267 738 420 1249 518
344 66 956 99 1319 71 744 -58 1299 -253 2234 -785 441 -251 1456 -911 2625
-1706 959 -652 2046 -1250 2805 -1541 485 -187 939 -304 1420 -369 142 -20
215 -23 440 -24 302 0 405 13 650 80 460 126 949 428 1267 781 439 488 683
971 774 1529 35 218 30 664 -12 942 -68 465 -341 1000 -805 1583 -121 152
-181 202 -329 274 -77 38 -103 46 -150 46 -128 0 -284 -125 -344 -276 -68
-170 -162 -309 -326 -478 -157 -162 -362 -321 -505 -393 -314 -158 -748 -180
-1305 -67 -166 34 -389 92 -420 109 -75 42 -109 55 -150 55 -25 0 -74 11 -110
24 -36 12 -254 91 -485 175 -1608 584 -2396 851 -3140 1065 -104 30 -183 56
-175 59 8 3 87 22 175 42 1333 310 2858 1051 4375 2129 969 688 1863 1514
2781 2571 604 695 1314 1644 1898 2535 l135 205 425 283 c512 340 788 534
1226 862 556 416 1004 781 1449 1180 77 68 137 116 133 105 -18 -45 -120 -434
-166 -628 -132 -561 -213 -1058 -252 -1557 -19 -235 -16 -748 5 -960 50 -504
157 -897 346 -1270 135 -265 284 -475 475 -665 379 -380 838 -594 1460 -682
109 -15 194 -18 515 -18 491 1 560 11 775 115 55 26 140 58 188 70 187 46 389
152 583 306 568 451 839 716 1233 1204 315 390 951 1278 1237 1726 37 58 68
103 71 101 2 -3 -10 -103 -26 -223 -108 -794 -139 -1364 -111 -2054 9 -223 42
-662 56 -735 25 -134 102 -284 211 -410 97 -112 159 -159 329 -247 571 -295
1078 -421 1849 -459 441 -21 946 26 1357 127 288 71 902 256 981 296 48 24
114 83 133 119 22 44 18 139 -11 214 -36 97 -120 260 -171 335 -194 281 -264
402 -355 607 -169 381 -272 808 -321 1328 -17 178 -17 852 0 1065 66 837 204
1546 465 2380 30 96 73 241 96 321 106 379 288 838 546 1379 56 118 129 285
160 370 242 649 564 1289 1068 2125 181 299 225 423 234 655 6 161 -9 268 -63
438 -29 91 -41 116 -60 124 -16 8 -24 19 -24 37 0 16 -57 111 -157 263 l-158
236 -60 27 c-90 41 -89 40 -95 62 -9 36 -196 199 -317 277 -86 55 -116 68
-348 153 -248 90 -374 110 -479 79 -59 -18 -286 -141 -383 -208 -40 -28 -89
-68 -108 -89 -25 -27 -43 -39 -62 -39 -23 0 -68 -40 -253 -227 -399 -404 -650
-710 -1004 -1228 -287 -419 -535 -815 -749 -1195 -303 -539 -1068 -1830 -1402
-2365 -339 -544 -772 -1206 -1013 -1550 -503 -716 -1057 -1370 -1412 -1668
-199 -166 -453 -317 -534 -317 -170 0 -352 122 -436 293 -104 211 -160 626
-139 1036 19 390 59 622 208 1221 60 239 117 477 127 529 14 72 23 95 37 99 9
2 20 16 23 31 9 39 93 245 211 516 58 132 133 310 168 395 319 780 819 1803
1175 2405 128 216 179 328 216 472 70 278 42 534 -83 751 -94 162 -296 431
-427 570 -197 208 -534 430 -798 526 -51 19 -127 50 -168 70 -144 66 -513 162
-721 187 -174 20 -344 -16 -475 -101 -172 -113 -306 -316 -927 -1405 -303
-533 -402 -715 -579 -1069 -155 -310 -298 -613 -438 -931 -91 -206 -93 -210
-159 -270 -701 -647 -1439 -1262 -2254 -1879 l-247 -187 37 63 c49 84 160 316
218 457 68 165 96 244 200 546 51 149 149 419 218 600 848 2243 1284 4136
1378 5985 15 304 6 1113 -15 1360 -95 1088 -303 1956 -655 2733 -285 629 -637
1237 -990 1707 -152 204 -250 317 -456 529 -879 904 -1972 1574 -3310 2031
-323 110 -567 178 -770 214 -731 130 -1474 188 -2165 169z m-324 -2983 c391
-23 800 -74 1074 -135 783 -175 1424 -460 1918 -854 223 -178 427 -382 609
-611 432 -541 709 -1220 837 -2050 46 -300 57 -448 63 -830 14 -970 -106
-2037 -353 -3135 -346 -1542 -957 -3316 -1787 -5190 -295 -668 -1424 -2686
-2185 -3908 l-107 -171 -150 -49 c-991 -320 -2076 -452 -3062 -372 -809 66
-1556 230 -2103 462 -246 105 -670 348 -670 385 0 20 242 517 379 777 505 962
947 1640 1628 2499 760 958 1548 1729 2235 2190 302 203 822 479 1118 595 143
56 244 77 370 77 251 0 408 -119 805 -610 55 -69 154 -179 220 -246 99 -100
133 -129 194 -159 126 -63 202 -78 396 -79 161 -1 174 0 243 26 41 15 99 42
129 60 115 69 251 231 368 438 103 181 304 718 381 1017 l36 138 5 300 c15
823 -116 1344 -459 1822 -397 552 -836 919 -1383 1153 -349 150 -775 254
-1209 295 -521 49 -1294 -38 -1951 -220 -1043 -289 -2164 -903 -3150 -1725
-371 -309 -860 -775 -1185 -1130 -680 -742 -1266 -1544 -1895 -2595 -341 -570
-698 -1237 -961 -1798 l-51 -107 -61 197 c-226 732 -338 1321 -383 2012 -13
210 -7 858 11 1041 105 1114 398 2314 825 3390 874 2199 1893 3777 3080 4767
669 558 1473 1097 2188 1468 958 496 2068 801 3142 864 207 12 647 12 851 1z
m-1808 -19587 c-409 -495 -703 -819 -1132 -1248 -347 -347 -533 -518 -791
-730 -752 -617 -1586 -1038 -2248 -1135 -242 -36 -551 -23 -709 31 -152 51
-404 206 -504 311 -191 198 -313 519 -358 939 -59 543 -5 1021 201 1774 19 72
37 133 39 136 2 4 45 -4 96 -18 219 -57 437 -86 863 -118 116 -9 296 -25 400
-36 287 -31 438 -38 810 -38 1051 -2 2232 85 3225 238 102 16 193 29 203 30
11 1 -21 -46 -95 -136z"/>
<path d="M80353 41439 c-172 -30 -330 -141 -530 -373 -262 -304 -525 -697
-855 -1276 -222 -389 -323 -580 -676 -1275 -343 -676 -550 -1079 -766 -1490
l-131 -250 -12 265 c-31 696 -132 1257 -329 1832 -304 886 -780 1541 -1420
1954 -297 192 -748 341 -1342 443 -629 109 -1113 128 -1672 65 -634 -71 -1376
-263 -2030 -526 -851 -343 -1766 -881 -2701 -1589 -1083 -820 -2134 -1976
-3187 -3505 l-131 -190 -133 -23 c-1791 -307 -3510 -712 -4978 -1171 -726
-227 -2084 -711 -3110 -1110 -381 -148 -815 -254 -1245 -305 -467 -56 -1016
-6 -1390 125 -280 98 -537 271 -694 467 -118 146 -276 422 -345 603 -59 153
-73 178 -148 253 -40 41 -98 87 -128 103 -50 26 -64 29 -155 29 -90 0 -109 -4
-191 -36 -164 -64 -237 -112 -369 -244 -297 -296 -661 -754 -877 -1100 -343
-549 -490 -987 -565 -1675 -20 -191 -23 -606 -4 -770 34 -308 141 -712 263
-1000 252 -592 674 -1094 1233 -1465 732 -486 1499 -626 2582 -470 959 138
1813 437 3123 1091 810 405 1257 661 2427 1392 1046 653 2604 1612 2611 1607
2 -2 -37 -79 -86 -172 -131 -247 -433 -852 -567 -1139 -939 -1999 -1531 -3869
-1785 -5632 -91 -635 -154 -1301 -192 -2017 -16 -310 -16 -1323 0 -1600 74
-1268 243 -2196 586 -3230 357 -1072 853 -1972 1472 -2670 494 -557 1077 -998
1654 -1248 522 -227 1094 -331 1646 -299 125 8 235 8 324 2 399 -28 939 -21
1370 15 859 74 1660 266 2460 590 1133 458 2252 1094 3220 1828 984 747 1957
1638 2768 2537 905 1002 1870 2256 2258 2935 325 569 535 1105 599 1525 22
149 31 460 16 589 -38 322 -160 551 -317 597 -49 14 -71 15 -132 7 -136 -20
-261 -95 -526 -318 -323 -270 -508 -450 -727 -706 -550 -644 -1325 -1425
-2009 -2025 -1073 -940 -2081 -1653 -3195 -2259 -1053 -573 -2266 -973 -3280
-1081 -223 -24 -630 -24 -825 0 -443 53 -788 172 -1105 380 -147 96 -262 195
-425 363 -618 634 -998 1491 -1164 2618 -78 529 -100 864 -101 1500 0 508 6
653 41 1070 83 991 330 2403 634 3626 458 1837 1142 3682 1774 4782 329 573
641 927 907 1028 48 18 61 19 168 9 935 -89 1596 -285 2166 -644 410 -258 654
-485 722 -674 13 -34 50 -107 82 -161 33 -55 85 -146 114 -204 149 -290 255
-723 297 -1217 35 -405 127 -721 281 -966 54 -84 215 -237 334 -316 167 -111
411 -223 585 -270 97 -26 375 -36 517 -18 334 41 819 189 1113 339 1550 789
3436 2428 4873 4233 783 985 1422 1980 1961 3058 415 830 642 1434 756 2009
87 439 77 1022 -25 1477 -129 573 -469 1011 -995 1278 -167 85 -253 105 -367
85z m-6383 -2389 c340 -41 712 -179 908 -336 254 -203 446 -511 567 -909 87
-288 165 -659 204 -975 41 -330 46 -440 46 -965 -1 -448 -4 -541 -23 -760 -41
-449 -124 -1044 -157 -1120 -23 -53 -272 -334 -479 -540 -211 -211 -366 -342
-696 -587 -246 -183 -331 -239 -560 -375 -102 -60 -250 -151 -329 -201 -78
-51 -146 -92 -150 -92 -3 0 -14 44 -24 98 -147 802 -458 1451 -930 1939 -183
188 -345 320 -598 486 -690 451 -1477 762 -2376 938 l-162 32 66 96 c746 1078
1387 1807 2010 2288 272 209 661 453 988 618 431 219 775 324 1205 368 81 9
412 6 490 -3z"/>
<path d="M130035 40234 c-22 -2 -96 -8 -165 -14 -497 -42 -1013 -145 -1665
-334 -563 -163 -1149 -377 -1455 -532 -777 -393 -1755 -1053 -2830 -1909
-1015 -808 -1920 -1727 -2867 -2910 -146 -183 -477 -613 -554 -719 l-31 -44
-72 30 c-375 159 -941 428 -1239 589 -84 45 -249 139 -367 209 -1137 671
-1849 1010 -2730 1298 -670 220 -1351 341 -2400 429 -299 25 -1010 25 -1250 0
-703 -74 -1225 -233 -1705 -521 -634 -381 -1135 -799 -1472 -1231 -44 -55
-135 -156 -203 -225 -137 -137 -208 -233 -273 -367 -34 -72 -42 -99 -42 -145
0 -49 4 -61 30 -88 94 -100 301 -142 700 -144 132 0 587 3 1010 8 890 10 1864
-6 2695 -45 1382 -64 3015 -454 5015 -1199 394 -147 448 -162 832 -240 184
-37 336 -70 339 -73 3 -2 -34 -76 -82 -163 -537 -986 -1075 -2155 -1402 -3044
-166 -453 -262 -752 -506 -1580 -378 -1283 -552 -2211 -573 -3055 -10 -444 24
-773 133 -1255 175 -777 437 -1350 802 -1754 417 -461 987 -755 1703 -877 115
-20 149 -21 464 -16 479 7 604 31 760 142 122 87 214 224 257 382 30 114 31
294 0 430 -29 129 -83 295 -160 493 -127 325 -267 886 -331 1325 -70 476 -88
1268 -42 1835 6 69 15 193 21 275 15 228 49 404 181 940 l121 490 52 80 c191
291 509 677 881 1069 99 104 241 255 316 335 853 913 1689 1511 2275 1627 132
27 334 25 441 -4 217 -58 333 -153 433 -357 159 -321 189 -798 105 -1630 -164
-1607 -697 -3504 -1334 -4740 -199 -388 -397 -647 -561 -735 -59 -32 -72 -35
-145 -34 -173 1 -320 100 -362 243 -31 110 -11 208 106 502 104 262 172 407
446 954 261 520 413 849 470 1020 80 238 60 420 -59 521 -49 42 -207 132 -303
172 -289 122 -599 121 -888 -5 -293 -127 -684 -387 -853 -567 -470 -503 -748
-1233 -787 -2066 -7 -153 8 -419 31 -560 78 -480 310 -942 642 -1278 373 -378
897 -643 1437 -727 298 -47 811 -20 1165 60 134 30 443 123 585 176 317 118
631 308 1020 620 291 233 652 584 881 859 828 990 1447 2366 1683 3740 136
785 154 1601 51 2240 -60 366 -172 746 -312 1055 -28 61 -72 160 -98 220 -254
591 -576 992 -1040 1298 -144 95 -377 214 -527 271 -189 72 -463 137 -718 172
-160 22 -615 25 -770 6 -429 -55 -939 -191 -1317 -353 -341 -146 -607 -294
-1018 -567 -349 -231 -423 -287 -589 -446 -129 -122 -333 -298 -339 -291 -2 1
9 27 23 56 39 75 53 119 79 244 31 145 128 397 164 427 7 6 58 100 112 207 55
108 151 293 215 411 64 118 164 306 222 418 57 111 111 202 118 202 7 0 111
-9 231 -20 1260 -112 2483 -83 3574 86 1130 175 2369 548 3370 1014 999 465
1925 1122 2578 1830 654 708 1087 1503 1246 2287 53 258 61 346 61 693 0 288
-3 343 -23 480 -134 902 -469 1469 -1104 1869 -364 229 -805 395 -1253 471
-266 45 -375 52 -805 55 -228 2 -433 1 -455 -1z m-1800 -2840 c170 -45 442
-242 542 -392 37 -56 37 -58 41 -173 9 -251 -84 -734 -204 -1056 -84 -227
-246 -521 -417 -755 -371 -509 -827 -908 -1486 -1300 -643 -382 -1267 -571
-2201 -664 -167 -17 -990 -33 -990 -20 0 8 209 343 352 564 491 761 974 1425
1383 1902 469 548 1135 1150 1630 1476 363 238 726 392 1026 434 86 12 250 4
324 -16z"/>
<path d="M44735 33043 c-567 -49 -1060 -190 -1631 -468 -689 -334 -1320 -764
-2004 -1364 -322 -283 -775 -729 -1016 -1001 -746 -842 -1401 -1816 -1917
-2850 -164 -329 -243 -504 -372 -825 -246 -611 -424 -1243 -519 -1840 -148
-931 -70 -1795 231 -2565 288 -736 847 -1268 1678 -1600 640 -256 1340 -385
1975 -366 657 19 1196 141 1936 437 888 355 1689 804 2449 1372 728 545 1451
1194 2035 1827 445 482 1247 1470 1637 2015 327 458 404 612 405 806 1 94 -19
157 -70 224 -121 159 -376 199 -599 94 -66 -31 -75 -40 -289 -289 -215 -250
-641 -655 -1034 -985 -975 -817 -2154 -1539 -3405 -2085 -963 -420 -1792 -559
-2410 -404 -335 84 -642 280 -789 503 -173 262 -243 550 -253 1042 l-6 267 29
6 c16 3 128 24 249 46 560 104 1393 297 1670 388 501 164 1022 432 1525 786
80 56 190 123 244 149 169 81 226 125 481 376 132 130 278 272 324 316 228
215 403 424 678 805 197 273 293 416 425 630 576 938 850 1747 850 2515 0 304
-31 527 -109 770 -81 253 -192 435 -377 621 -148 148 -295 248 -541 369 -419
206 -773 287 -1235 283 -113 -1 -223 -3 -245 -5z m-1011 -2198 c81 -38 182
-177 229 -314 40 -114 48 -270 22 -422 -54 -329 -295 -891 -590 -1379 -45 -74
-97 -162 -115 -194 -44 -79 -184 -264 -306 -406 -128 -150 -837 -865 -979
-987 -259 -224 -626 -474 -1068 -727 -65 -37 -120 -66 -122 -64 -3 2 7 31 20
64 40 99 55 172 65 311 8 112 15 148 45 235 56 160 89 258 150 453 208 658
539 1324 1014 2040 246 371 475 659 716 901 397 398 733 577 919 489z"/>
<path d="M135180 32829 c-533 -33 -1038 -216 -1545 -560 -402 -273 -1140 -948
-1607 -1469 -372 -416 -783 -948 -1117 -1445 -929 -1384 -1662 -2916 -2097
-4380 -236 -793 -327 -1346 -328 -1975 0 -303 11 -454 49 -686 104 -617 378
-1170 742 -1495 408 -365 1065 -591 1858 -639 575 -36 1158 81 1673 335 261
128 422 231 762 486 400 301 647 515 1021 889 289 288 484 504 691 761 l113
142 7 -174 c29 -713 175 -1250 449 -1660 228 -340 590 -696 914 -897 108 -67
402 -210 575 -280 391 -157 807 -239 1345 -262 121 -6 247 -14 280 -19 91 -14
232 -12 307 4 147 31 216 83 278 209 56 116 66 168 51 257 -17 95 -119 299
-243 489 -354 540 -565 1096 -649 1705 -27 191 -37 719 -20 972 33 478 115
987 236 1470 56 223 232 830 326 1126 188 587 442 1238 698 1788 50 108 100
230 110 272 66 255 50 498 -45 697 -20 41 -47 107 -61 145 -114 315 -354 638
-653 881 -152 124 -468 324 -511 324 -9 0 -36 13 -60 30 -24 16 -91 45 -149
64 -345 112 -665 78 -930 -100 -80 -53 -120 -67 -120 -41 0 7 16 74 35 148 74
289 108 548 108 844 0 484 -80 796 -284 1101 -165 245 -514 544 -804 686 -127
62 -218 89 -590 177 -276 65 -313 71 -470 81 -93 5 -181 9 -195 8 -14 0 -81
-4 -150 -9z m-95 -1959 c260 -66 491 -292 554 -542 52 -205 26 -413 -100 -790
-96 -289 -174 -425 -346 -600 -109 -110 -116 -120 -135 -185 -13 -44 -22 -112
-25 -193 -5 -116 -4 -130 21 -204 34 -100 56 -130 117 -161 86 -44 160 -56
371 -62 286 -8 460 19 650 102 137 59 373 225 573 403 50 44 91 79 92 78 1 -1
-36 -90 -83 -196 -250 -570 -498 -1255 -674 -1861 -38 -130 -77 -254 -88 -275
-39 -76 -82 -223 -103 -345 -27 -166 -43 -225 -91 -347 l-41 -103 -166 -138
c-409 -338 -758 -597 -1221 -904 -322 -214 -461 -297 -680 -406 -384 -191
-687 -271 -980 -257 -566 26 -955 225 -1149 588 -87 162 -157 387 -192 622
-30 196 -30 515 0 737 124 933 616 2100 1343 3188 679 1016 1457 1733 2013
1856 94 21 248 18 340 -5z"/>
<path d="M143925 16553 c-273 -9 -476 -41 -635 -100 -126 -47 -301 -138 -355
-185 -25 -22 -53 -38 -68 -38 -36 0 -89 -40 -110 -82 -13 -25 -21 -78 -28
-165 -33 -461 -132 -914 -302 -1383 -91 -252 -374 -912 -587 -1370 -71 -152
-138 -309 -150 -350 -44 -158 -35 -313 25 -416 151 -257 683 -389 1300 -323
707 75 1340 342 1910 803 204 165 343 316 467 506 248 379 363 873 314 1340
-56 529 -165 858 -378 1145 -205 274 -456 462 -752 560 -174 58 -308 70 -651
58z"/>
<path d="M77605 9033 c-268 -35 -486 -134 -653 -297 -124 -120 -209 -258 -265
-431 -78 -238 -79 -248 -74 -2005 3 -1510 4 -1526 25 -1635 35 -180 103 -353
185 -475 41 -61 149 -173 218 -225 112 -87 266 -156 439 -197 122 -28 457 -37
596 -15 340 54 598 206 763 449 50 74 118 225 146 323 48 168 55 248 55 676
l0 397 -87 6 c-49 3 -189 11 -313 16 -124 5 -255 12 -292 16 l-68 5 0 -358 c0
-310 -3 -370 -19 -448 -51 -247 -187 -365 -421 -365 -223 0 -359 110 -418 337
-16 63 -17 173 -17 1583 0 1410 1 1520 17 1583 59 229 195 337 424 337 228 0
364 -120 415 -365 16 -75 19 -136 19 -367 l0 -278 48 0 c26 0 173 7 327 15
154 8 304 15 333 15 l52 0 0 323 c0 350 -9 442 -55 602 -125 431 -433 695
-900 770 -83 14 -397 19 -480 8z"/>
<path d="M117605 9029 c-533 -82 -880 -413 -989 -942 -35 -166 -37 -311 -34
-1787 4 -1593 1 -1510 63 -1725 94 -325 299 -575 581 -710 181 -86 314 -115
569 -122 230 -6 355 8 515 59 414 132 670 427 773 892 l22 101 0 1595 0 1595
-22 101 c-114 512 -411 816 -908 930 -83 19 -475 28 -570 13z m378 -734 c127
-33 215 -107 273 -228 67 -141 64 -74 64 -1678 0 -1606 3 -1532 -65 -1676 -75
-161 -212 -243 -405 -243 -245 0 -396 128 -456 385 -18 76 -19 151 -19 1535 0
1384 1 1459 19 1535 47 202 139 313 304 366 71 22 207 25 285 4z"/>
<path d="M27280 6390 l0 -2580 395 0 395 0 0 1090 0 1090 173 0 172 0 298
-1052 c164 -579 302 -1070 308 -1090 l10 -38 420 0 c396 0 420 1 415 18 -22
70 -698 2290 -702 2306 -4 18 7 30 68 71 238 163 388 418 450 765 26 147 37
631 19 852 -51 628 -348 990 -919 1120 -94 21 -119 22 -799 25 l-703 4 0
-2581z m1323 1818 c164 -62 251 -175 294 -378 26 -123 26 -577 0 -700 -43
-203 -130 -316 -294 -378 -65 -24 -80 -26 -300 -30 l-233 -4 0 762 0 762 233
-4 c220 -4 235 -6 300 -30z"/>
<path d="M31690 6943 c0 -1292 4 -2068 10 -2138 19 -210 64 -370 144 -521 156
-293 419 -469 791 -529 135 -22 415 -20 557 5 498 86 802 388 901 895 21 110
21 114 24 2213 l4 2102 -395 0 -395 0 -3 -2052 -3 -2053 -22 -77 c-12 -42 -29
-91 -38 -108 -22 -43 -83 -108 -125 -135 -122 -76 -326 -83 -467 -15 -100 48
-162 132 -200 271 -16 60 -17 205 -20 2117 l-4 2052 -379 0 -380 0 0 -2027z"/>
<path d="M36230 6390 l0 -2580 370 0 370 0 1 1793 c1 1435 3 1783 13 1747 7
-25 154 -667 327 -1427 l314 -1383 237 0 236 0 30 128 c16 70 162 707 323
1416 l294 1290 3 -1782 2 -1782 395 0 395 0 0 2580 0 2580 -529 0 c-414 0
-530 -3 -533 -12 -3 -7 -139 -630 -304 -1385 -164 -755 -299 -1371 -301 -1370
-1 2 -138 617 -303 1367 -165 751 -303 1373 -306 1383 -5 16 -39 17 -520 17
l-514 0 0 -2580z"/>
<path d="M41710 6390 l0 -2581 713 4 c679 3 716 4 807 25 196 43 316 91 447
178 236 157 380 386 454 719 19 88 22 138 26 423 6 404 -8 546 -73 747 -93
287 -280 483 -551 580 -60 21 -65 25 -43 31 14 4 66 28 115 53 72 37 108 63
181 136 81 80 98 103 142 195 96 198 122 349 122 705 0 270 -9 370 -50 532
-109 433 -373 690 -820 801 l-105 26 -682 3 -683 4 0 -2581z m1213 1835 c127
-33 215 -102 267 -210 56 -113 63 -158 67 -430 4 -221 2 -261 -15 -346 -25
-122 -63 -201 -126 -264 -96 -96 -187 -123 -438 -132 l-178 -6 0 701 0 702
183 0 c130 0 199 -4 240 -15z m52 -2130 c151 -32 261 -114 321 -240 63 -132
67 -160 72 -492 2 -187 0 -328 -7 -371 -35 -228 -136 -366 -310 -424 -59 -20
-93 -22 -308 -26 l-243 -4 0 786 0 786 203 0 c139 0 224 -5 272 -15z"/>
<path d="M46705 8958 c-6 -20 -885 -5114 -885 -5132 0 -14 39 -16 394 -16
l394 0 12 88 c7 48 45 310 84 582 l72 495 427 3 c235 1 427 0 427 -2 0 -12
161 -1123 165 -1143 l5 -23 400 0 400 0 -1 23 c0 12 -199 1172 -442 2577
l-443 2555 -502 3 c-397 2 -503 0 -507 -10z m660 -2169 c85 -585 155 -1072
155 -1081 0 -17 -22 -18 -321 -18 l-321 0 6 28 c3 15 73 497 156 1072 84 575
154 1051 156 1059 2 8 7 12 9 9 3 -2 74 -483 160 -1069z"/>
<path d="M59360 6390 l0 -2580 395 0 395 0 0 1064 0 1063 273 6 c296 6 425 22
587 73 396 124 651 416 740 847 29 139 40 304 40 597 0 307 -11 463 -44 610
-107 480 -392 760 -884 872 -94 21 -119 22 -799 25 l-703 4 0 -2581z m1246
1839 c90 -16 194 -70 246 -127 109 -122 147 -285 148 -637 0 -373 -39 -536
-159 -655 -105 -105 -189 -129 -478 -137 l-213 -6 0 786 0 787 198 0 c109 0
225 -5 258 -11z"/>
<path d="M63690 6390 l0 -2580 1045 0 1045 0 0 370 0 370 -650 0 -650 0 0
2210 0 2210 -395 0 -395 0 0 -2580z"/>
<path d="M68205 8958 c-6 -20 -885 -5114 -885 -5132 0 -14 39 -16 394 -16
l394 0 12 88 c7 48 45 310 84 582 l72 495 427 3 c235 1 427 0 427 -2 0 -12
161 -1123 165 -1143 l5 -23 400 0 400 0 -1 23 c0 12 -199 1172 -442 2577
l-443 2555 -502 3 c-397 2 -503 0 -507 -10z m660 -2169 c85 -585 155 -1072
155 -1081 0 -17 -22 -18 -321 -18 l-321 0 6 28 c3 15 73 497 156 1072 84 575
154 1051 156 1059 2 8 7 12 9 9 3 -2 74 -483 160 -1069z"/>
<path d="M71990 6390 l0 -2580 370 0 370 0 2 1711 3 1712 515 -1712 514 -1711
388 0 388 0 0 2580 0 2580 -370 0 -370 0 -1 -1537 c0 -971 -4 -1531 -10 -1518
-9 19 -919 3039 -919 3050 0 3 -198 5 -440 5 l-440 0 0 -2580z"/>
<path d="M81030 6390 l0 -2580 395 0 395 0 0 1125 0 1125 460 0 460 0 0 -1125
0 -1125 395 0 395 0 0 2580 0 2580 -395 0 -395 0 0 -1085 0 -1085 -460 0 -460
0 0 1085 0 1085 -395 0 -395 0 0 -2580z"/>
<path d="M86295 8958 c-6 -20 -885 -5114 -885 -5132 0 -14 39 -16 394 -16
l394 0 12 88 c7 48 45 310 84 582 l72 495 427 3 c235 1 427 0 427 -2 0 -12
161 -1123 165 -1143 l5 -23 400 0 400 0 -1 23 c0 12 -199 1172 -442 2577
l-443 2555 -502 3 c-397 2 -503 0 -507 -10z m660 -2169 c85 -585 155 -1072
155 -1081 0 -17 -22 -18 -321 -18 l-321 0 6 28 c3 15 73 497 156 1072 84 575
154 1051 156 1059 2 8 7 12 9 9 3 -2 74 -483 160 -1069z"/>
<path d="M98940 6390 l0 -2580 395 0 395 0 0 796 0 797 163 318 c89 175 164
319 167 319 3 0 174 -498 380 -1106 206 -608 378 -1110 381 -1115 3 -5 177 -8
425 -7 l420 3 -528 1515 c-291 833 -534 1533 -540 1555 l-11 40 521 1006 c287
553 524 1013 528 1022 6 16 -24 17 -408 17 l-415 0 -539 -1070 -539 -1070 -3
1070 -2 1070 -395 0 -395 0 0 -2580z"/>
<path d="M104055 8958 c-6 -20 -885 -5114 -885 -5132 0 -14 39 -16 394 -16
l394 0 12 88 c7 48 45 310 84 582 l72 495 427 3 c235 1 427 0 427 -2 0 -12
161 -1123 165 -1143 l5 -23 400 0 400 0 -1 23 c0 12 -199 1172 -442 2577
l-443 2555 -502 3 c-397 2 -503 0 -507 -10z m660 -2169 c85 -585 155 -1072
155 -1081 0 -17 -22 -18 -321 -18 l-321 0 6 28 c3 15 73 497 156 1072 84 575
154 1051 156 1059 2 8 7 12 9 9 3 -2 74 -483 160 -1069z"/>
<path d="M107840 6390 l0 -2580 395 0 395 0 0 1090 0 1090 173 0 172 0 298
-1052 c164 -579 302 -1070 308 -1090 l10 -38 420 0 c396 0 420 1 415 18 -22
70 -698 2290 -702 2306 -4 18 7 30 68 71 238 163 388 418 450 765 26 147 37
631 19 852 -51 628 -348 990 -919 1120 -94 21 -119 22 -799 25 l-703 4 0
-2581z m1323 1818 c124 -47 188 -106 243 -222 57 -123 69 -205 69 -506 0 -301
-12 -383 -69 -506 -55 -116 -119 -175 -243 -222 -65 -24 -80 -26 -300 -30
l-233 -4 0 762 0 762 233 -4 c220 -4 235 -6 300 -30z"/>
<path d="M112925 8958 c-6 -20 -885 -5114 -885 -5132 0 -14 39 -16 394 -16
l394 0 12 88 c7 48 45 310 84 582 l72 495 427 3 c235 1 427 0 427 -2 0 -12
161 -1123 165 -1143 l5 -23 400 0 400 0 -1 23 c0 12 -199 1172 -442 2577
l-443 2555 -502 3 c-397 2 -503 0 -507 -10z m660 -2169 c85 -585 155 -1072
155 -1081 0 -17 -22 -18 -321 -18 l-321 0 6 28 c3 15 73 497 156 1072 84 575
154 1051 156 1059 2 8 7 12 9 9 3 -2 74 -483 160 -1069z"/>
<path d="M121200 6390 l0 -2580 395 0 395 0 0 796 0 797 163 318 c89 175 164
319 167 319 3 0 174 -498 380 -1106 206 -608 378 -1110 381 -1115 3 -5 177 -8
425 -7 l420 3 -528 1515 c-291 833 -534 1533 -540 1555 l-11 40 521 1006 c287
553 524 1013 528 1022 6 16 -24 17 -408 17 l-415 0 -539 -1070 -539 -1070 -3
1070 -2 1070 -395 0 -395 0 0 -2580z"/>
<path d="M125710 6390 l0 -2580 1100 0 1100 0 0 365 0 365 -705 0 -705 0 0
760 0 760 570 0 570 0 0 365 0 365 -570 0 -570 0 0 725 0 725 705 0 705 0 0
365 0 365 -1100 0 -1100 0 0 -2580z"/>
<path d="M53020 6380 l0 -380 785 0 785 0 0 380 0 380 -785 0 -785 0 0 -380z"/>
<path d="M92610 6380 l0 -380 785 0 785 0 0 380 0 380 -785 0 -785 0 0 -380z"/>
</g>
</svg>
